<?xml version="1.0" encoding="UTF-8"?>
<svg width="1443px" height="909px" viewBox="0 0 1443 909" version="1.1" xmlns="http://www.w3.org/2000/svg" xmlns:xlink="http://www.w3.org/1999/xlink">
    <title>Group 20</title>
    <defs>
        <path d="M-3.19744231e-14,426.130999 L-3.19744231e-14,-1.42108547e-14 L704.908288,-1.42108547e-14 L704.908288,426.130999 L672.867002,426.130999 C672.867002,602.640238 529.413279,745.729248 352.454144,745.729248 C175.495009,745.729248 32.0412858,602.640238 32.0412858,426.130999 L32.0412858,426.130999 L-3.19744231e-14,426.130999 Z" id="path-1"></path>
        <path d="M267.010715,0 C349.591645,-1.51698707e-14 416.536716,66.9450707 416.536716,149.526001 L416.537075,165.568838 C431.690895,168.111345 443.237787,181.290736 443.237787,197.167048 L443.237787,234.290589 C443.237787,250.464515 431.253926,263.839461 415.681112,266.020517 C410.058526,318.752634 377.019653,363.290361 331.095375,385.10748 L331.093,434.12 L349.341433,434.120955 C451.337379,434.120955 534.02143,516.805007 534.02143,618.800953 L534.02143,649.849774 L0,649.849774 L0,618.800953 C-1.24909009e-14,516.805007 82.6840514,434.120955 184.679998,434.120955 L202.928,434.12 L202.927053,385.107954 C157.002256,363.291006 123.962945,318.753016 118.335925,266.020789 C102.767505,263.839461 90.7836432,250.464515 90.7836432,234.290589 L90.7836432,197.167048 C90.7836432,181.290736 102.330535,168.111345 117.484356,165.568838 L117.484715,149.526001 C117.484715,66.9450707 184.429785,1.51698707e-14 267.010715,0 Z" id="path-3"></path>
        <path d="M416.538352,34.8121172 C463.316003,40.0333316 499.584753,54.0909703 501.866162,89.794844 C570.695537,116.639324 619.464859,183.581754 619.464859,261.914869 L619.464859,292.965062 L85.4434289,292.965062 L85.4434289,261.914869 C85.4434289,183.58145 134.21313,116.638804 203.04532,89.7941441 C205.323547,54.0907967 241.592638,40.0331949 288.370619,34.8120411 L288.371572,85.063278 C288.371572,120.455105 317.062317,149.14585 352.454144,149.14585 C387.845971,149.14585 416.536716,120.455105 416.536716,85.063278 L416.536716,85.063278 Z" id="path-5"></path>
        <path d="M93.7684063,40.2908915 C96.5930275,65.5703815 118.088125,85.2261998 144.185786,85.2261998 C170.364065,85.2261998 191.911301,65.4487569 194.628808,40.0564594 C194.847514,38.0128719 192.559431,34.6231437 189.6918,34.6231437 C149.923189,34.6231437 119.455044,34.6231437 99.025795,34.6231437 C96.1415251,34.6231437 93.485807,37.7617145 93.7684063,40.2908915 Z" id="path-7"></path>
        <rect id="path-9" x="0" y="0" width="704.908288" height="745.729248"></rect>
        <path d="M481.019749,106.320772 C473.650859,98.8101875 465.095051,92.4353501 456.773233,86.0426409 C454.937039,84.633457 453.071373,83.2582292 451.276261,81.7954301 C450.868119,81.4630164 446.687562,78.4766543 446.187431,77.3775444 C444.983545,74.7334256 445.681049,76.7922461 445.847163,73.6369964 C446.05704,69.6471382 454.213636,58.3781341 448.127224,55.7938855 C445.449738,54.657245 440.67349,57.6820312 438.104961,58.6810596 C433.081327,60.6362242 427.99607,62.3036543 422.802748,63.741433 C425.290898,58.7963321 430.034995,48.8971943 421.118379,51.5466746 C414.171921,53.6108567 407.698801,58.9178597 400.718405,61.4145369 C403.027937,57.6382455 412.264279,45.9367462 403.918348,45.2826418 C401.321241,45.0789044 393.763909,49.9382211 390.967642,50.9747801 C382.592239,54.0799889 374.037324,56.0869815 365.243955,57.6677338 C335.344176,63.0426493 300.379681,61.5101506 272.716201,75.0881789 C251.389199,85.555637 230.330124,101.797443 218.009939,122.479474 C206.135407,142.414469 201.694068,164.231353 199.208597,187.074967 C197.384906,203.839521 197.236653,221.16882 198.089555,237.994138 C198.368199,243.506665 198.98979,268.91755 207.018674,261.221994 C211.018826,257.387619 210.989354,241.904467 211.996761,236.663589 C214.001749,226.236343 215.931718,215.762629 219.274556,205.66869 C225.165381,187.880981 232.114518,179.586674 246.789782,167.33562 C256.207422,159.47475 262.820758,148.850021 271.832935,140.919452 C275.881314,137.357621 272.792114,137.728459 279.300958,138.195804 C283.673529,138.509452 288.065749,138.629193 292.447251,138.743571 C302.582935,139.006286 312.734696,138.939267 322.87306,138.97501 C343.290896,139.048284 363.613172,139.336018 384.01136,138.269971 C393.076229,137.796371 402.166105,137.539912 411.20686,136.703516 C416.257287,136.236171 425.218558,133.007648 429.375894,135.474836 C433.18046,137.732033 437.131493,145.102324 439.863457,148.120855 C446.317822,155.254347 454.013584,160.702536 461.561092,166.551945 C477.299134,178.748491 485.24496,183.413949 490.024781,202.474123 C494.78674,221.463704 493.451569,239.081196 499.345967,257.768745 C500.382845,261.054459 503.125526,266.718002 506.506767,261.641544 C507.13461,260.698812 506.972067,255.516211 506.972067,252.534123 C506.972067,240.4966 510.028223,231.46471 509.990179,219.348587 C509.839781,182.50964 508.645719,134.473176 481.019749,106.320772 Z" id="path-11"></path>
    </defs>
    <g id="Website" stroke="none" stroke-width="1" fill="none" fill-rule="evenodd">
        <g id="Group-20" transform="translate(0.000000, 6.000000)">
            <path d="M1170.32985,133.849999 C1199.41287,133.849999 1223.04438,157.180617 1223.5141,186.153204 L1223.52123,187.032869 C1223.52123,216.404958 1199.71055,240.21574 1170.32985,240.21574 L1121.59514,240.21574 C1092.21542,240.21574 1068.40452,264.026523 1068.40452,293.398611 C1068.40452,322.777158 1092.21877,346.581482 1121.59514,346.581482 L1121.59514,346.581482 L1163.247,346.580999 L1163.24759,346.698115 C1190.67799,348.505708 1212.42711,371.100979 1212.87753,398.884687 L1212.88466,399.764353 C1212.88466,427.943222 1190.96811,451.003454 1163.24774,452.83056 L1163.247,452.946999 L1232.38171,452.947224 C1261.4619,452.947224 1285.09111,476.277842 1285.56079,505.250429 L1285.56791,506.130095 C1285.56791,535.502183 1261.75999,559.312966 1232.38171,559.312966 L1147.28312,559.312966 C1117.92103,559.312966 1094.10958,583.123748 1094.10958,612.495836 C1094.10958,641.874383 1117.91618,665.678707 1147.28312,665.678707 L1147.28312,665.678707 L1237.7,665.678707 C1266.78019,665.678707 1290.4094,689.009325 1290.87907,717.981912 L1290.8862,718.861578 C1290.8862,748.233667 1267.07828,772.044449 1237.7,772.044449 L1095.88239,772.044449 C1124.96073,772.044449 1148.58844,795.375067 1149.05809,824.347654 L1149.06521,825.22732 C1149.06521,854.599408 1125.25343,878.410191 1095.88239,878.410191 L283.957126,878.410191 C254.585066,878.410191 230.774306,854.605867 230.774306,825.22732 C230.774306,795.855231 254.586091,772.044449 283.957126,772.044449 L360.188676,772.044449 C389.558743,772.044449 413.36883,748.233667 413.36883,718.861578 L413.36883,718.861578 L413.361705,717.981912 C412.892082,689.009325 389.265558,665.678707 360.188676,665.678707 L360.188676,665.678707 L204.186198,665.678707 C174.812272,665.678707 151,641.874383 151,612.495836 C151,583.123748 174.807921,559.312966 204.186198,559.312966 L249.396059,559.312966 C220.019691,559.312966 196.20544,535.508641 196.20544,506.130095 C196.20544,476.758006 220.016336,452.947224 249.396059,452.947224 L435.522899,452.947224 C464.899301,452.947224 488.71123,429.136441 488.71123,399.764353 L488.71123,399.764353 L488.704104,398.884687 C488.234409,369.9121 464.604252,346.581482 435.522899,346.581482 L435.522899,346.581482 L307.006415,346.581482 C277.632489,346.581482 253.820217,322.777158 253.820217,293.398611 C253.820217,264.026523 277.628138,240.21574 307.006415,240.21574 L238.317051,240.21574 C208.940266,240.21574 185.125675,216.411416 185.125675,187.032869 C185.125675,157.660781 208.936353,133.849999 238.317051,133.849999 L1170.32985,133.849999 Z" id="Combined-Shape" fill="#6E07F3" opacity="0.0830078125"></path>
            <g id="Avataaar/Circle" transform="translate(368.048032, 7.000000)">
                <mask id="mask-2" fill="white">
                    <use xlink:href="#path-1"></use>
                </mask>
                <g id="Mask"></g>
                <g id="Avataaar" mask="url(#mask-2)">
                    <g transform="translate(0.000000, -5.973799)">
                        <g id="Body" stroke-width="1" fill-rule="evenodd" transform="translate(85.443429, 95.879475)">
                            <mask id="mask-4" fill="white">
                                <use xlink:href="#path-3"></use>
                            </mask>
                            <use fill="#D0C6AC" xlink:href="#path-3"></use>
                            <g id="Skin/ðŸ‘¶ðŸ»-05-Pale" mask="url(#mask-4)" fill="#FFDBB4">
                                <g transform="translate(-85.443429, 0.000000)" id="Color">
                                    <rect x="0" y="0" width="704.908288" height="649.849774"></rect>
                                </g>
                            </g>
                            <path d="M117.484715,249.971811 C117.484715,332.552741 184.429785,399.497812 267.010715,399.497812 C349.591645,399.497812 416.536716,332.552741 416.536716,249.971811 L416.536716,249.971811 L416.536716,271.278361 C416.536716,353.859291 349.591645,420.804362 267.010715,420.804362 C184.429785,420.804362 117.484715,353.859291 117.484715,271.278361 Z" id="Neck-Shadow" fill-opacity="0.100000001" fill="#000000" mask="url(#mask-4)"></path>
                        </g>
                        <g id="Clothing/Hoodie" transform="translate(0.000000, 452.764186)">
                            <mask id="mask-6" fill="white">
                                <use xlink:href="#path-5"></use>
                            </mask>
                            <use id="Hoodie" fill="#B7C1DB" fill-rule="evenodd" xlink:href="#path-5"></use>
                            <g id="Color/Palette/Slate" mask="url(#mask-6)" fill="#293347" fill-rule="evenodd">
                                <rect id="ðŸ–Color" x="0" y="0" width="704.908288" height="292.965062"></rect>
                            </g>
                            <path d="M272.348772,164.429831 L272.350929,292.965062 L253.660179,292.965062 L253.656798,154.870679 C259.541396,158.359478 265.797912,161.557761 272.348772,164.429831 Z M451.250393,154.87133 L451.248109,262.313137 C451.248109,267.474445 447.064042,271.658512 441.902734,271.658512 C436.741426,271.658512 432.557359,267.474445 432.557359,262.313137 L432.559156,164.429989 C439.10974,161.558056 445.366006,158.359939 451.250393,154.87133 Z" id="Straps" fill="#F4F4F4" fill-rule="evenodd" mask="url(#mask-6)"></path>
                            <path d="M462.031518,33.8883553 C502.220699,41.4701415 530.01627,56.5757253 530.01627,86.0456825 C530.01627,138.545866 441.802122,181.105675 352.454144,181.105675 C263.106166,181.105675 174.892018,138.545866 174.892018,86.0456825 C174.892018,56.5761799 202.686732,41.4706076 242.87491,33.8887062 C218.616558,42.8101452 202.928144,57.8090897 202.928144,82.7677517 C202.928144,137.078287 277.213741,181.105675 352.454144,181.105675 C427.694547,181.105675 501.980145,137.078287 501.980145,82.7677517 C501.980145,58.3280109 486.937311,43.4381435 463.533912,34.4523109 Z" id="Shadow" fill-opacity="0.16" fill="#000000" fill-rule="evenodd" mask="url(#mask-6)"></path>
                        </g>
                        <g id="Face" stroke-width="1" fill-rule="evenodd" transform="translate(202.928144, 218.392137)">
                            <g id="Mouth/Smile" transform="translate(5.340214, 138.492575)">
                                <mask id="mask-8" fill="white">
                                    <use xlink:href="#path-7"></use>
                                </mask>
                                <use id="Mouth" fill-opacity="0.699999988" fill="#000000" fill-rule="evenodd" xlink:href="#path-7"></use>
                                <path d="M116.959179,5.32663749 L174.082501,5.32663749 C181.165553,5.32663749 186.907501,11.0685855 186.907501,18.1516373 L186.907501,35.1147376 C186.907501,42.1977894 181.165553,47.9397374 174.082501,47.9397374 L116.959179,47.9397374 C109.876127,47.9397374 104.134179,42.1977894 104.134179,35.1147376 L104.134179,18.1516373 C104.134179,11.0685855 109.876127,5.32663749 116.959179,5.32663749 Z" id="Teeth" fill="#FFFFFF" fill-rule="evenodd" mask="url(#mask-8)"></path>
                                <g id="Tongue" stroke-width="1" fill-rule="evenodd" mask="url(#mask-8)" fill="#FF4F6D">
                                    <g transform="translate(101.464072, 63.919650)">
                                        <ellipse cx="29.3711787" cy="29.2965062" rx="29.3711787" ry="29.2965062"></ellipse>
                                        <ellipse cx="56.0722502" cy="29.2965062" rx="29.3711787" ry="29.2965062"></ellipse>
                                    </g>
                                </g>
                            </g>
                            <g id="Nose/Default" transform="translate(74.763000, 106.532750)" fill="#000000" fill-opacity="0.16">
                                <path d="M42.7217144,21.30655 C42.7217144,33.0738326 57.0670867,42.6130999 74.7630003,42.6130999 L74.7630003,42.6130999 C92.4589138,42.6130999 106.804286,33.0738326 106.804286,21.30655" id="Nose"></path>
                            </g>
                            <g id="Eyes/Happy-ðŸ˜" transform="translate(0.000000, 21.306550)" fill="#000000" fill-opacity="0.599999964">
                                <path d="M43.1493786,59.7843457 C48.0797543,49.6669209 59.181383,42.6130999 72.0864322,42.6130999 C84.9459254,42.6130999 96.014708,49.6172075 100.971041,59.6773139 C102.443362,62.6657533 100.348244,65.1114362 98.2348629,63.2991573 C91.6901614,57.6869069 82.3960792,54.1819929 72.0864322,54.1819929 C62.0992323,54.1819929 53.0650645,57.4710943 46.560098,62.7787938 C44.1817099,64.7194294 41.7073439,62.7434869 43.1493786,59.7843457 Z" id="Squint"></path>
                                <path d="M198.015593,59.7843457 C202.945969,49.6669209 214.047598,42.6130999 226.952647,42.6130999 C239.81214,42.6130999 250.880923,49.6172075 255.837256,59.6773139 C257.309577,62.6657533 255.214459,65.1114362 253.101078,63.2991573 C246.556376,57.6869069 237.262294,54.1819929 226.952647,54.1819929 C216.965447,54.1819929 207.931279,57.4710943 201.426313,62.7787938 C199.047925,64.7194294 196.573559,62.7434869 198.015593,59.7843457 Z" id="Squint"></path>
                            </g>
                            <g id="Eyebrow/Natural/Default-Natural" fill="#000000" fill-opacity="0.599999964">
                                <path d="M69.5303158,16.5397013 C54.1462332,18.602784 30.1538276,31.9829546 32.1564912,47.4635201 C32.2222976,47.9701936 32.9906569,48.1279417 33.3223112,47.704784 C39.9632741,39.2120716 91.2989032,26.7260808 109.992641,29.3271751 C111.703519,29.5657853 112.83338,27.8039506 111.666766,26.7046952 C101.67087,17.2909496 83.3116469,14.6779587 69.5303158,16.5397013" id="Eyebrow" transform="translate(72.091531, 31.963390) rotate(5.000000) translate(-72.091531, -31.963390) "></path>
                                <path d="M227.069362,16.5397013 C211.68528,18.602784 187.692874,31.9829546 189.695538,47.4635201 C189.761344,47.9701936 190.529703,48.1279417 190.861358,47.704784 C197.502321,39.2120716 248.83795,26.7260808 267.531687,29.3271751 C269.242566,29.5657853 270.372426,27.8039506 269.205812,26.7046952 C259.209916,17.2909496 240.850693,14.6779587 227.069362,16.5397013" id="Eyebrow" transform="translate(229.630577, 31.963390) scale(-1, 1) rotate(5.000000) translate(-229.630577, -31.963390) "></path>
                            </g>
                        </g>
                        <g id="Top" stroke-width="1" fill-rule="evenodd">
                            <mask id="mask-10" fill="white">
                                <use xlink:href="#path-9"></use>
                            </mask>
                            <g id="Mask"></g>
                            <g id="Top/Short-Hair/Short-Flat-Low" mask="url(#mask-10)">
                                <g transform="translate(-2.670107, 0.000000)">
                                    <mask id="mask-12" fill="white">
                                        <use xlink:href="#path-11"></use>
                                    </mask>
                                    <use id="Short-Hair" stroke="none" fill="#1F3140" fill-rule="evenodd" xlink:href="#path-11"></use>
                                    <g id="Color/Hair/Brown-Dark" stroke="none" fill="none" mask="url(#mask-12)" fill-rule="evenodd">
                                        <g transform="translate(2.670107, 0.000000)" fill="#4A312C" id="Color">
                                            <rect x="0" y="0" width="704.908288" height="745.729248"></rect>
                                        </g>
                                    </g>
                                </g>
                            </g>
                        </g>
                    </g>
                </g>
            </g>
            <path d="M1056.68141,391.647015 L385.318579,391.647015 C374.297925,391.647015 364.324895,396.112332 357.106432,403.331371 C349.886647,410.551734 345.422268,420.52717 345.422268,431.546057 L345.422268,856.982029 C345.422268,867.995559 349.888464,877.971587 357.109816,885.193516 C364.329553,892.413829 374.302808,896.88107 385.318579,896.88107 L1056.68141,896.88107 C1067.70206,896.88107 1077.67509,892.415754 1084.89355,885.196714 C1092.11334,877.976352 1096.57772,868.000915 1096.57772,856.982029 L1096.57772,431.546057 C1096.57772,420.532527 1092.11152,410.556499 1084.89017,403.33457 C1077.67043,396.114256 1067.69718,391.647015 1056.68141,391.647015 Z" id="Case" stroke="#6E07F3" stroke-width="11.3999999" fill="#FFFFFF"></path>
            <path d="M738.069337,607.820674 C742.138522,602.935621 744.869467,596.147602 744.122542,589.367319 C738.2833,589.59552 731.183622,593.250607 727.00551,598.116321 C723.255324,602.452144 719.968076,609.356198 720.839488,615.985636 C727.359521,616.488452 734.019603,612.697992 738.069337,607.820674 M768.292569,674.084117 C768.14863,674.478635 765.845611,682.37285 760.239783,690.499133 C755.412002,697.542428 750.378039,704.562516 742.457521,704.701758 C734.692613,704.852603 732.191193,700.122262 723.298117,700.122262 C714.408931,700.122262 711.631303,704.562516 704.27098,704.852603 C696.622779,705.150425 690.822439,697.244606 685.932414,690.236122 C675.946182,675.898124 668.336884,649.709134 678.55653,632.048681 C683.652737,623.268736 692.728654,617.722286 702.594289,617.571441 C710.110222,617.447671 717.182668,622.588 721.769254,622.588 C726.359731,622.588 734.953259,616.372418 744.005835,617.285223 C747.779362,617.455407 758.415263,618.805275 765.254296,628.741697 C764.690212,629.097536 752.56046,636.106021 752.692728,650.722502 C752.844448,668.1973 768.113618,674.014497 768.292569,674.084117" id="apple_logo" fill="#E2D7F4"></path>
            <path d="M857.395198,370.13231 L1136.09781,370.13231 C1147.1159,370.13231 1156.04781,379.064229 1156.04781,390.08231 L1156.04781,429.8703 L1156.04781,429.8703 L1156.04781,469.658291 C1156.04781,480.676372 1147.1159,489.608291 1136.09781,489.608291 L857.395198,489.608291 C846.377118,489.608291 837.445199,480.676372 837.445199,469.658291 L837.445199,442.813532 L837.445199,442.813532 L823.845898,434.777582 C821.135682,433.17609 820.236883,429.68076 821.838374,426.970543 C822.327519,426.14276 823.018115,425.452164 823.845898,424.963019 L837.445199,416.927069 L837.445199,416.927069 L837.445199,390.08231 C837.445199,379.064229 846.377118,370.13231 857.395198,370.13231 Z" id="Rectangle-29" fill="#6E07F3"></path>
            <g id="Group-85" transform="translate(999.801093, 429.756763) scale(1, -1) translate(-999.801093, -429.756763) translate(870.301093, 403.756763)" fill="#FFFFFF">
                <rect id="Rectangle-11" opacity="0.7" transform="translate(73.676855, 5.973799) scale(1, -1) translate(-73.676855, -5.973799) " x="0" y="0" width="147.35371" height="11.9475981" rx="5.97379905"></rect>
                <path d="M163.283841,0 L232.978163,0 C236.277401,2.05847505e-15 238.951962,2.67456094 238.951962,5.97379905 C238.951962,9.27303717 236.277401,11.9475981 232.978163,11.9475981 L163.283841,11.9475981 C159.984603,11.9475981 157.310042,9.27303717 157.310042,5.97379905 C157.310042,2.67456094 159.984603,1.49423863e-15 163.283841,0 Z" id="Rectangle-11" opacity="0.7" transform="translate(198.131002, 5.973799) scale(1, -1) translate(-198.131002, -5.973799) "></path>
                <rect id="Rectangle-11" transform="translate(34.847161, 45.799126) scale(1, -1) translate(-34.847161, -45.799126) " x="0" y="39.825327" width="69.6943223" height="11.9475981" rx="5.97379905"></rect>
                <rect id="Rectangle-11" opacity="0.7" transform="translate(139.388645, 45.799126) scale(1, -1) translate(-139.388645, -45.799126) " x="79.650654" y="39.825327" width="119.475981" height="11.9475981" rx="5.97379905"></rect>
                <rect id="Rectangle-11" opacity="0.7" transform="translate(233.973796, 45.799126) scale(1, -1) translate(-233.973796, -45.799126) " x="209.082967" y="39.825327" width="49.7816588" height="11.9475981" rx="5.97379905"></rect>
            </g>
            <g id="Group-87" transform="translate(230.799999, 172.299998)">
                <path d="M28.0952068,0 L137.540184,0 C148.558264,1.5287251e-15 157.490183,8.93191913 157.490183,19.9499997 L157.490183,59.7379905 L157.490183,59.7379905 L157.490183,99.5259813 C157.490183,110.544062 148.558264,119.475981 137.540184,119.475981 L28.0952068,119.475981 C17.0771262,119.475981 8.14520706,110.544062 8.14520706,99.5259813 L8.14520706,72.6812218 L8.14520706,72.6812218 L-5.45409316,64.6452717 C-8.1643097,63.0437801 -9.06310886,59.54845 -7.46161727,56.8382335 C-6.9724725,56.01045 -6.28187661,55.3198541 -5.45409316,54.8307094 L8.14520706,46.7947592 L8.14520706,46.7947592 L8.14520706,19.9499997 C8.14520706,8.93191913 17.0771262,2.5426666e-13 28.0952068,0 Z" id="Rectangle-29" fill="#6E07F3" transform="translate(78.745092, 59.737991) scale(-1, 1) translate(-78.745092, -59.737991) "></path>
                <path d="M52.5818771,52.51965 C53.4634279,52.51965 54.2127443,52.8281919 54.8298301,53.4452777 C55.4469159,54.0623635 55.7554578,54.8116799 55.7554578,55.6932307 L55.7554578,87.4290382 C55.7554578,88.3105891 55.4469159,89.0599054 54.8298301,89.6769912 C54.2127443,90.2940771 53.4634279,90.602619 52.5818771,90.602619 L42.0032746,90.602619 C41.1217237,90.602619 40.3724074,90.2940771 39.7553216,89.6769912 C39.1382357,89.0599054 38.8296938,88.3105891 38.8296938,87.4290382 L38.8296938,55.6932307 C38.8296938,54.8116799 39.1382357,54.0623635 39.7553216,53.4452777 C40.3724074,52.8281919 41.1217237,52.51965 42.0032746,52.51965 L52.5818771,52.51965 Z M47.2925758,85.3133177 C48.1741267,85.3133177 48.923443,85.0047758 49.5405289,84.38769 C50.1576147,83.7706042 50.4661566,83.0212878 50.4661566,82.139737 C50.4661566,81.2581861 50.1576147,80.5088697 49.5405289,79.8917839 C48.923443,79.2746981 48.1741267,78.9661562 47.2925758,78.9661562 C46.4110249,78.9661562 45.6617086,79.2746981 45.0446228,79.8917839 C44.427537,80.5088697 44.1189951,81.2581861 44.1189951,82.139737 C44.1189951,83.0212878 44.427537,83.7706042 45.0446228,84.38769 C45.6617086,85.0047758 46.4110249,85.3133177 47.2925758,85.3133177 Z M89.6069858,33.610398 C89.6069858,35.1971884 89.3425207,36.7839788 88.8135906,38.3707692 C88.4609698,39.25232 87.843886,40.4864897 86.9623352,42.07328 C85.9926306,43.9245355 85.4196216,45.2909376 85.2433122,46.1724885 L98.5987979,46.1724885 C100.802674,46.1724885 102.675967,46.9438443 104.21868,48.4865578 C105.761394,50.0292713 106.53275,51.8144105 106.53275,53.8419753 C106.53275,55.0761449 106.290324,56.2662377 105.805471,57.4122536 C105.320618,58.5582696 104.725571,59.5279741 104.020332,60.3213693 L103.888099,60.3213693 C104.593339,61.9963154 104.857804,63.803492 104.681494,65.7429031 C104.505185,67.6823142 103.844022,69.4013371 102.698006,70.8999718 C103.226936,72.5749179 103.271013,74.3380176 102.830239,76.1892731 C102.389464,78.0405285 101.640146,79.583242 100.582286,80.8174116 C101.111216,83.1094415 100.802674,85.0929295 99.6566581,86.7678755 C98.5106422,88.4428216 96.3949217,89.5447587 93.3094966,90.0736888 C91.4582412,90.4263096 88.5932024,90.602619 84.7143821,90.602619 L84.3176845,90.602619 C81.4967245,90.602619 78.5876089,90.1177657 75.5903375,89.1480611 C73.8272377,88.619131 71.4250128,87.6714638 68.3836645,86.3050617 C65.3423163,84.9386595 63.0723239,84.2554575 61.5736892,84.2554575 C61.1329148,84.2554575 60.7582546,84.1011855 60.4497127,83.7926436 C60.1411708,83.4841017 59.9868988,83.1094415 59.9868988,82.6686671 L59.9868988,54.3709054 C59.9868988,53.930131 60.1632082,53.5775102 60.5158289,53.3130452 C62.2789287,51.4617897 64.438728,48.6849066 66.995223,44.9823957 C69.1109435,41.8969707 70.8740432,39.6930945 72.2845242,38.3707692 C73.1660751,37.4892183 73.8713146,36.2991255 74.4002447,34.8004908 C74.7528655,33.9189399 75.149563,32.508461 75.5903375,30.5690498 L75.5903375,30.4368173 C76.1192676,28.4092525 76.6041209,26.866539 77.0448953,25.8086787 C77.9264462,23.8692676 78.9402276,22.899563 80.0862435,22.899563 C82.4664291,22.899563 84.4499171,23.47257 86.0367074,24.6185859 C88.416893,26.3816857 89.6069858,29.3789571 89.6069858,33.610398 Z" id="thumbs-up" fill="#FFFFFF"></path>
            </g>
            <g id="Group-88" transform="translate(293.375544, 625.210113)">
                <g id="Group-87" fill="#7510F7" stroke="#7510F7" stroke-width="22.7999997">
                    <path d="M137.540184,11.3999999 L28.0952068,11.3999999 C25.7341895,11.3999999 23.5966896,12.3569912 22.0494439,13.9042368 C20.5021983,15.4514825 19.5452069,17.5889825 19.5452069,19.9499997 L19.5452069,53.2999436 L8.65005056,59.7379905 L19.5452069,66.1760375 L19.5452069,99.5259813 C19.5452069,101.886999 20.5021983,104.024499 22.0494439,105.571744 C23.5966896,107.11899 25.7341895,108.075981 28.0952068,108.075981 L137.540184,108.075981 C139.901201,108.075981 142.038701,107.11899 143.585947,105.571744 C145.133192,104.024499 146.090183,101.886999 146.090183,99.5259813 L146.090183,19.9499997 C146.090183,17.5889825 145.133192,15.4514825 143.585947,13.9042368 C142.038701,12.3569912 139.901201,11.3999999 137.540184,11.3999999 Z" id="Rectangle-29" transform="translate(78.745092, 59.737991) scale(-1, 1) translate(-78.745092, -59.737991) "></path>
                </g>
                <path d="M75.5903341,24.8908294 C81.8525608,24.8908294 87.6474557,26.4563866 92.9750211,29.5874988 C98.3025864,32.7186111 102.531926,36.947951 105.663039,42.2755163 C108.794151,47.6030817 110.359708,53.3979766 110.359708,59.6602033 C110.359708,65.92243 108.794151,71.7173249 105.663039,77.0448903 C102.531926,82.3724556 98.3025864,86.6017955 92.9750211,89.7329078 C87.6474557,92.86402 81.8525608,94.4295772 75.5903341,94.4295772 C69.3281074,94.4295772 63.5332125,92.86402 58.2056471,89.7329078 C52.8780818,86.6017955 48.6487419,82.3724556 45.5176296,77.0448903 C42.3865174,71.7173249 40.8209602,65.92243 40.8209602,59.6602033 C40.8209602,53.3979766 42.3865174,47.6030817 45.5176296,42.2755163 C48.6487419,36.947951 52.8780818,32.7186111 58.2056471,29.5874988 C63.5332125,26.4563866 69.3281074,24.8908294 75.5903341,24.8908294 Z M99.9849755,41.71472 C98.115655,39.2846032 95.9659342,37.1348824 93.5358174,35.2655619 L84.7032748,44.2383036 C87.3203252,45.8272259 89.4233115,47.9302122 91.0122338,50.5472626 L99.9849755,41.71472 Z M75.5903341,73.1193158 C79.3289772,73.1193158 82.5068218,71.8107917 85.1238721,69.1937413 C87.7409225,66.5766909 89.0494466,63.3988464 89.0494466,59.6602033 C89.0494466,55.9215602 87.7409225,52.7437157 85.1238721,50.1266653 C82.5068218,47.5096149 79.3289772,46.2010908 75.5903341,46.2010908 C71.851691,46.2010908 68.6738465,47.5096149 66.0567961,50.1266653 C63.4397457,52.7437157 62.1312216,55.9215602 62.1312216,59.6602033 C62.1312216,63.3988464 63.4397457,66.5766909 66.0567961,69.1937413 C68.6738465,71.8107917 71.851691,73.1193158 75.5903341,73.1193158 Z M57.6448508,35.2655619 C55.214734,37.1348824 53.0650132,39.2846032 51.1956927,41.71472 L60.1684344,50.5472626 C61.7573567,47.9302122 63.860343,45.8272259 66.4773934,44.2383036 L57.6448508,35.2655619 Z M51.1956927,77.6056866 C53.0650132,80.0358034 55.214734,82.1855242 57.6448508,84.0548447 L66.4773934,75.082103 C63.860343,73.4931807 61.7573567,71.3901944 60.1684344,68.773144 L51.1956927,77.6056866 Z M93.5358174,84.0548447 C95.9659342,82.1855242 98.115655,80.0358034 99.9849755,77.6056866 L91.0122338,68.773144 C89.4233115,71.3901944 87.3203252,73.4931807 84.7032748,75.082103 L93.5358174,84.0548447 Z" id="life-ring" fill="#FFFFFF"></path>
            </g>
            <g id="Group-89" transform="translate(1021.411561, 724.773430)">
                <path d="M42.6213968,0 L152.066374,0 C163.084454,-2.15960314e-14 172.016373,8.93191913 172.016373,19.9499997 L172.016373,59.7379905 L172.016373,59.7379905 L172.016373,99.5259813 C172.016373,110.544062 163.084454,119.475981 152.066374,119.475981 L46.0687767,119.475981 C33.1467608,119.475981 22.6713971,109.000617 22.6713971,96.0786014 L22.6713971,77.5601101 C22.6713971,74.5363489 21.074269,71.7374643 18.4710328,70.1991883 L9.07209688,64.6452717 C6.36188033,63.0437801 5.46308118,59.54845 7.06457277,56.8382335 C7.55371753,56.01045 8.24431343,55.3198541 9.07209688,54.8307094 L22.6713971,46.7947592 L22.6713971,46.7947592 L22.6713971,19.9499997 C22.6713971,8.93191913 31.6033162,2.61372087e-13 42.6213968,0 Z" id="Rectangle-29" fill="#6E07F3"></path>
                <path d="M128.052939,60.1580199 C128.052939,65.7926229 126.644288,71.0067319 123.826987,75.8003488 C121.009687,80.5939657 117.204227,84.3994254 112.41061,87.2167259 C107.616993,90.0340265 102.402884,91.4426777 96.7682814,91.4426777 C91.1336784,91.4426777 85.9195695,90.0340265 81.1259525,87.2167259 C76.3323356,84.3994254 72.5268759,80.5939657 69.7095754,75.8003488 C66.8922749,71.0067319 65.4836236,65.7926229 65.4836236,60.1580199 C65.4836236,54.5234169 66.8922749,49.3093079 69.7095754,44.515691 C72.5268759,39.7220741 76.3323356,35.9166144 81.1259525,33.0993138 C85.9195695,30.2820133 91.1336784,28.8733621 96.7682814,28.8733621 C102.402884,28.8733621 107.616993,30.2820133 112.41061,33.0993138 C117.204227,35.9166144 121.009687,39.7220741 123.826987,44.515691 C126.644288,49.3093079 128.052939,54.5234169 128.052939,60.1580199 Z M97.6513161,39.2174828 C94.2873738,39.2174828 91.3859741,39.9323211 88.947117,41.3619956 C86.6764563,42.6234738 84.6580913,44.5997902 82.8920219,47.2909429 C82.6397263,47.6273377 82.5556271,47.9847559 82.6397263,48.3631993 C82.7238255,48.7416427 82.9340706,49.0570123 83.2704654,49.3093079 L87.6856388,52.5891511 C87.9379345,52.8414467 88.2743293,52.9465692 88.6948214,52.9045206 C89.1153134,52.862472 89.4517082,52.6732502 89.7040039,52.3368554 C91.0495812,50.7389825 92.1008123,49.6457027 92.8576992,49.0570123 C94.0350782,48.2160262 95.3806555,47.7955341 96.8944293,47.7955341 C98.3241038,47.7955341 99.6486559,48.1950029 100.868085,48.9939384 C102.087515,49.7928739 102.697229,50.781033 102.697229,51.958412 C102.697229,52.8834953 102.318785,53.6824328 101.561898,54.3552205 C101.057307,54.7757125 100.090173,55.4064516 98.6604986,56.2474377 L98.408203,56.3735855 C96.3057388,57.5509644 94.8340156,58.6021975 93.9930295,59.5272808 C92.4792558,61.1251538 91.7223689,63.017371 91.7223689,65.2039324 L91.7223689,65.7085237 C91.7223689,66.1290158 91.869542,66.4864359 92.1638862,66.7807801 C92.4582305,67.0751244 92.8156506,67.2222975 93.2361427,67.2222975 L100.30042,67.2222975 C100.720912,67.2222975 101.078332,67.0751244 101.372677,66.7807801 C101.667021,66.4864359 101.814194,66.1290158 101.814194,65.7085237 L101.814194,65.5823759 C101.814194,64.9095882 102.150589,64.3208977 102.823376,63.8163065 C103.243869,63.4799117 104.042806,62.9753204 105.220185,62.3025327 C107.406746,60.9569554 108.962571,59.7795764 109.887654,58.7703939 C111.485527,57.0043245 112.284463,54.7757125 112.284463,52.0845598 C112.284463,49.7298 111.569624,47.5642638 110.13995,45.5879474 C108.710275,43.611631 106.860107,42.0558086 104.589446,40.9204783 C102.318785,39.785148 100.006076,39.2174828 97.6513161,39.2174828 Z M96.7682814,70.5021406 C95.1704085,70.5021406 93.8038078,71.0698058 92.6684775,72.2051361 C91.5331472,73.3404664 90.965482,74.7070671 90.965482,76.30494 C90.965482,77.902813 91.5331472,79.2694137 92.6684775,80.404744 C93.8038078,81.5400743 95.1704085,82.1077395 96.7682814,82.1077395 C98.3661544,82.1077395 99.7327551,81.5400743 100.868085,80.404744 C102.003416,79.2694137 102.571081,77.902813 102.571081,76.30494 C102.571081,74.7070671 102.003416,73.3404664 100.868085,72.2051361 C99.7327551,71.0698058 98.3661544,70.5021406 96.7682814,70.5021406 Z" id="question-circle" fill="#FFFFFF"></path>
            </g>
            <circle id="Oval" fill="#6E07F3" fill-rule="nonzero" opacity="0.253" cx="95" cy="627" r="26"></circle>
            <circle id="Oval" fill="#6E07F3" fill-rule="nonzero" opacity="0.451" cx="24" cy="269" r="24"></circle>
            <circle id="Oval" fill="#6E07F3" fill-rule="nonzero" opacity="0.494" cx="98.5" cy="142.5" r="15.5"></circle>
            <g id="Group" opacity="0.7" stroke-linecap="round" transform="translate(324.000000, 0.000000)" stroke="#6E07F3" stroke-width="12">
                <path d="M49.192,36.897 L0.65,12.164 M12.164,49.192 L36.897,0.65" id="Shape"></path>
            </g>
            <g id="Group" opacity="0.7" stroke-linecap="round" transform="translate(1305.000000, 558.000000)" stroke="#6E07F3" stroke-width="12">
                <path d="M15.872,0.397 L27.046,42.099 M42.366,15.605 L0.664,26.779" id="Shape"></path>
            </g>
            <path d="M251.5,513 C260.06,513 267,506.06 267,497.5 C267,488.94 260.06,482 251.5,482 C242.94,482 236,488.94 236,497.5 C236,506.06 242.94,513 251.5,513 Z" id="Path" fill="#6E07F3" fill-rule="nonzero" opacity="0.212"></path>
            <circle id="Oval" fill="#6E07F3" fill-rule="nonzero" opacity="0.15" cx="1056" cy="75" r="26"></circle>
            <circle id="Oval" fill="#6E07F3" fill-rule="nonzero" opacity="0.304" cx="1159.5" cy="189.5" r="15.5"></circle>
            <circle id="Oval" fill="#6E07F3" fill-rule="nonzero" opacity="0.158" cx="1418.468" cy="407" r="24"></circle>
            <g id="Group" opacity="0.7" stroke-linecap="round" transform="translate(1336.000000, 130.000000)" stroke="#6E07F3" stroke-width="12">
                <path d="M0.336,38.504 L41.029,4.359 M3.295,0.336 L37.441,41.029" id="Shape"></path>
            </g>
        </g>
    </g>
</svg>