<?xml version="1.0" encoding="utf-8"?>
<!-- Generator: Adobe Illustrator 19.0.0, SVG Export Plug-In . SVG Version: 6.00 Build 0)  -->
<svg version="1.1" id="Layer_1" xmlns="http://www.w3.org/2000/svg" xmlns:xlink="http://www.w3.org/1999/xlink" x="0px" y="0px"
	 viewBox="0 0 640 600" style="enable-background:new 0 0 640 600;" xml:space="preserve">
<style type="text/css">
	.st1{fill:none;stroke:#A02525;stroke-miterlimit:10;}
	.st2{fill:#6E07F3;}
	.st3{fill:#773131;}
	.st4{fill:none;}
</style>
<g id="Layer_1_1_" class="st0">
	
		<image style="display:inline;overflow:visible;enable-background:new    ;" width="64" height="60" xlink:href="FCB244D9.png"  transform="matrix(3.0469 0 0 3.0469 222.5 191.1875)">
	</image>
</g>
<g id="Layer_2">
	<path class="st1" d="M420.6,319.4"/>
	<path class="st2" d="M576.9,496.7C577.2,496.7,577.2,496.7,576.9,496.7c0,23.4,0,47.1-0.3,70.5c-93.9,0.3-217.4,0.3-311,0.7
		c-31.2,0-43.4,0-73.5-6.8c-74.5-16.9-121.3-61.7-127.3-134.1c-3.4-40.3-1.3-77.3-1-117.8c0.3-56.3-5.6-118.8,14.6-171.7
		c16.3-42.8,52.7-78,96.4-94C211.8,30,233.4,30,272.9,30.3c47.5,0.3,94.6,0.3,142.2,0.7c27.4,0,55.8,0.3,81.2,10.1
		c50.6,19.7,79.7,75,80.5,128.3s-26.3,102.2-54.8,147.7c-15.9,25.7-29.5,52.3-49.2,75.3c-12.5,14.6-29.8,30.2-48.9,25.4
		c-11.1-2.7-19.5-12.3-26.3-21.1c-21.5-27.5-40.2-57.1-56.5-88.3c-19.1,34.7-38.5,69.5-57.6,104.2c-2.1,3.7-4.6,7.8-8.3,9.8
		c-3.4,1.7-7.7,1.7-11.5,1.7c-22.2-0.7-44.4-1-66.6-1.7c30.9-54.6,61.7-108.9,92.3-163.6c6.9-12.3,14.2-25.1,25.3-33.9
		c11.1-9.1,27-13.6,40.2-7.8c11.5,5.1,18,16.3,23.9,26.9c17.3,30.5,34.7,60.7,52,91.3c17.3-27.2,35.7-53.3,52-81.1
		c18.3-30.9,32.6-51.6,30.9-81.1c-1.8-26.1-19.1-50.6-43.7-60.7c-17.7-7.5-37.8-7.5-57.3-7.5c-52,0-104.1,0-156,0
		c-32.9,0-48.9,0.7-75.9,19.1c-28.1,19.1-41.2,53.3-44.7,86.2c-3.4,33.2-5.6,65.9-5.9,99.1c-0.3,33.6,1,67.9,3.8,101.4
		c2.8,33.6,15.2,47.8,43.4,67.5c28.2,19.7,46.1,20.4,80.8,20.1C355.3,498.1,481.2,497.4,576.9,496.7z"/>
	<path class="st3" d="M411.7,238.9"/>
	<path class="st3" d="M411.2,257.7"/>
	<polyline class="st4" points="29.3,101.4 73.8,150 73.8,101.4 	"/>
</g>
</svg>
